<svg width="180" height="22" viewBox="0 0 180 22" fill="none" xmlns="http://www.w3.org/2000/svg">
<g clip-path="url(#clip0_636_3317)">
<path d="M6.54689 10.0345C6.48131 9.94996 6.3947 9.88352 6.29543 9.8416C6.19617 9.79968 6.0876 9.78369 5.98023 9.79518C5.87286 9.80667 5.77031 9.84526 5.6825 9.9072C5.59469 9.96914 5.52459 10.0523 5.47897 10.1488L0.0676591 20.8061C0.0183628 20.9032 -0.00491228 21.0111 4.36607e-05 21.1196C0.00499961 21.2281 0.0380221 21.3335 0.0959758 21.4259C0.15393 21.5183 0.234891 21.5945 0.331173 21.6474C0.427455 21.7003 0.535862 21.7281 0.646101 21.7281H8.18107C8.30175 21.7308 8.42065 21.699 8.52333 21.6365C8.62601 21.574 8.70806 21.4834 8.75951 21.3759C10.3849 18.0674 9.39986 13.037 6.54689 10.0345Z" fill="url(#paint0_linear_636_3317)"/>
<path d="M10.5158 0.341155C9.16747 2.38477 8.38171 4.7386 8.23565 7.17164C8.08958 9.60468 8.58823 12.0333 9.68266 14.2192L13.3153 21.3759C13.369 21.4817 13.4516 21.5707 13.5538 21.6329C13.6559 21.6951 13.7737 21.728 13.8938 21.7281H21.4274C21.5376 21.728 21.646 21.7003 21.7423 21.6474C21.8386 21.5945 21.9196 21.5183 21.9775 21.4259C22.0355 21.3335 22.0685 21.2281 22.0735 21.1196C22.0784 21.0111 22.0551 20.9032 22.0058 20.8061C22.0058 20.8061 11.8706 0.836634 11.6159 0.337157C11.5655 0.235487 11.4871 0.149859 11.3896 0.090096C11.2921 0.0303326 11.1794 -0.00114576 11.0646 -0.000728323C10.9497 -0.000310886 10.8373 0.0319855 10.7403 0.092456C10.6432 0.152927 10.5654 0.239122 10.5158 0.341155Z" fill="#2684FF"/>
<path d="M98.8811 8.88627C98.8811 11.5253 100.124 13.6205 104.985 14.5455C107.886 15.1452 108.493 15.6064 108.493 16.5587C108.493 17.4837 107.884 18.0825 105.841 18.0825C103.372 18.0387 100.953 17.3938 98.7982 16.2052V20.5035C100.262 21.2109 102.195 22 105.786 22C110.868 22 112.885 19.7675 112.885 16.4497L98.8811 8.88627ZM112.885 16.4497C112.885 13.3209 111.2 11.8515 106.449 10.8452C103.825 10.2737 103.19 9.70262 103.19 8.88627C103.19 7.85332 104.129 7.41716 105.869 7.41716C107.968 7.41716 110.04 8.04292 112.001 8.91359V4.80515C110.121 3.96212 108.073 3.54385 106.007 3.58094C101.312 3.58094 98.8811 5.59418 98.8811 8.88627" fill="#0052CC"/>
<path d="M164.173 3.85287V21.7281H168.04V8.09727L169.67 11.7156L175.139 21.7281H180V3.85287H176.133V15.3888L174.669 12.0421L170.277 3.85287H164.173Z" fill="#0052CC"/>
<path d="M139.579 3.85287H135.353V21.7281H139.579V3.85287Z" fill="#0052CC"/>
<path d="M130.477 16.4497C130.477 13.3209 128.792 11.8515 124.041 10.8452C121.417 10.2737 120.782 9.70262 120.782 8.88627C120.782 7.85332 121.721 7.41716 123.461 7.41716C125.561 7.41716 127.632 8.04292 129.593 8.91359V4.80515C127.713 3.96212 125.665 3.54385 123.599 3.58094C118.904 3.58094 116.473 5.59418 116.473 8.88627C116.473 11.5253 117.716 13.6205 122.577 14.5455C125.478 15.1452 126.085 15.6064 126.085 16.5587C126.085 17.4837 125.476 18.0825 123.433 18.0825C120.964 18.0387 118.545 17.3938 116.39 16.2052V20.5035C117.854 21.2109 119.788 22 123.378 22C128.461 22 130.477 19.7675 130.477 16.4497Z" fill="#0052CC"/>
<path d="M66.0523 3.85287V21.7281H74.7384L76.106 17.8646H70.3057V3.85287H66.0523Z" fill="#0052CC"/>
<path d="M48.8912 3.85287V7.71608H53.5868V21.7281H57.8402V7.71608H62.8672V3.85287H48.8912Z" fill="#0052CC"/>
<path d="M42.7235 3.85287H37.1492L30.8212 21.7281H35.6537L36.5508 18.7176C38.7602 19.3566 41.1095 19.3566 43.3189 18.7176L44.216 21.7281H49.0495L42.7235 3.85287ZM39.9362 15.4941C39.149 15.4941 38.3659 15.3831 37.6106 15.1646L39.9362 7.36388L42.2618 15.1673C41.5064 15.3849 40.7233 15.495 39.9362 15.4941Z" fill="#0052CC"/>
<path d="M89.713 3.85287H84.139L77.811 21.7281H82.6445L83.5416 18.7176C85.751 19.3566 88.1003 19.3566 90.3097 18.7176L91.2068 21.7281H96.0403L89.713 3.85287ZM86.926 15.4941C86.1388 15.4941 85.3557 15.3831 84.6004 15.1646L86.926 7.36388L89.2516 15.1673C88.4962 15.3849 87.7131 15.495 86.926 15.4941Z" fill="#0052CC"/>
<path d="M154.807 3.85287H149.233L142.905 21.7281H147.739L148.636 18.7176C150.845 19.3566 153.195 19.3566 155.404 18.7176L156.301 21.7281H161.135L154.807 3.85287ZM152.019 15.4941C151.231 15.4941 150.448 15.3831 149.693 15.1646L152.019 7.36388L154.344 15.1673C153.589 15.3849 152.806 15.495 152.019 15.4941Z" fill="#0052CC"/>
</g>
<defs>
<linearGradient id="paint0_linear_636_3317" x1="9.5125" y1="11.6792" x2="3.93003" y2="21.4954" gradientUnits="userSpaceOnUse">
<stop stop-color="#0052CC"/>
<stop offset="0.923" stop-color="#2684FF"/>
</linearGradient>
<clipPath id="clip0_636_3317">
<rect width="180" height="22" fill="white"/>
</clipPath>
</defs>
</svg>
