<svg width="32" height="32" viewBox="0 0 32 32" fill="none" xmlns="http://www.w3.org/2000/svg">
<path opacity="0.1" fill-rule="evenodd" clip-rule="evenodd" d="M0 16C0 7.16344 7.16344 0 16 0C24.8366 0 32 7.16344 32 16C32 24.8366 24.8366 32 16 32C7.16344 32 0 24.8366 0 16Z" fill="black"/>
<path d="M24.0426 16.2127C24.0426 11.5089 20.2251 7.69141 15.5213 7.69141C10.8175 7.69141 7 11.5089 7 16.2127C7 20.337 9.93133 23.7711 13.817 24.5636V18.7691H12.1128V16.2127H13.817V14.0824C13.817 12.4378 15.1549 11.0999 16.7995 11.0999H18.9298V13.6563H17.2256C16.7569 13.6563 16.3734 14.0398 16.3734 14.5084V16.2127H18.9298V18.7691H16.3734V24.6914C20.6767 24.2653 24.0426 20.6353 24.0426 16.2127Z" fill="black"/>
</svg>
