<svg width="18" height="18" viewBox="0 0 18 18" fill="none" xmlns="http://www.w3.org/2000/svg">
<path fill-rule="evenodd" clip-rule="evenodd" d="M8.53413 0.466797C6.2166 0.466797 5.92575 0.47693 5.01552 0.518353C4.10707 0.559953 3.48697 0.703777 2.94439 0.914802C2.38314 1.13276 1.90704 1.42432 1.43273 1.89881C0.958055 2.37313 0.666496 2.84922 0.447827 3.41029C0.236269 3.95305 0.0922676 4.57333 0.0513783 5.48143C0.0106668 6.39166 0 6.68268 0 9.00022C0 11.3178 0.0103112 11.6077 0.0515561 12.5179C0.0933343 13.4264 0.237158 14.0465 0.448005 14.5891C0.66614 15.1503 0.957699 15.6264 1.43219 16.1007C1.90633 16.5754 2.38242 16.8677 2.94332 17.0856C3.48626 17.2967 4.10653 17.4405 5.01481 17.4821C5.92504 17.5235 6.21571 17.5336 8.53307 17.5336C10.8508 17.5336 11.1407 17.5235 12.051 17.4821C12.9594 17.4405 13.5802 17.2967 14.1232 17.0856C14.6842 16.8677 15.1596 16.5754 15.6338 16.1007C16.1084 15.6264 16.4 15.1503 16.6187 14.5893C16.8284 14.0465 16.9724 13.4262 17.0151 12.5181C17.056 11.6079 17.0667 11.3178 17.0667 9.00022C17.0667 6.68268 17.056 6.39184 17.0151 5.4816C16.9724 4.57315 16.8284 3.95306 16.6187 3.41047C16.4 2.84922 16.1084 2.37313 15.6338 1.89881C15.1591 1.42414 14.6844 1.13258 14.1226 0.914802C13.5786 0.703777 12.9582 0.559953 12.0497 0.518353C11.1395 0.47693 10.8497 0.466797 8.53147 0.466797H8.53413ZM7.76858 2.00457C7.99578 2.00421 8.24929 2.00457 8.5341 2.00457C10.8125 2.00457 11.0826 2.01274 11.9823 2.05363C12.8143 2.09168 13.2659 2.2307 13.5667 2.3475C13.9649 2.50217 14.2488 2.68706 14.5473 2.98573C14.846 3.2844 15.0309 3.56885 15.1859 3.96708C15.3027 4.26752 15.4419 4.71908 15.4798 5.55109C15.5207 6.45066 15.5295 6.72088 15.5295 8.99824C15.5295 11.2756 15.5207 11.5458 15.4798 12.4454C15.4417 13.2774 15.3027 13.729 15.1859 14.0294C15.0312 14.4276 14.846 14.7112 14.5473 15.0097C14.2486 15.3084 13.9651 15.4932 13.5667 15.6479C13.2662 15.7652 12.8143 15.9039 11.9823 15.942C11.0827 15.9828 10.8125 15.9917 8.5341 15.9917C6.2555 15.9917 5.98545 15.9828 5.08588 15.942C4.25387 15.9036 3.80231 15.7645 3.50133 15.6477C3.10311 15.4931 2.81866 15.3082 2.51999 15.0095C2.22132 14.7108 2.03643 14.4271 1.88141 14.0287C1.7646 13.7282 1.6254 13.2767 1.58754 12.4447C1.54665 11.5451 1.53847 11.2749 1.53847 8.99611C1.53847 6.71733 1.54665 6.44852 1.58754 5.54896C1.62558 4.71695 1.7646 4.26539 1.88141 3.96459C2.03607 3.56636 2.22132 3.28191 2.51999 2.98324C2.81866 2.68457 3.10311 2.49968 3.50133 2.34466C3.80214 2.22732 4.25387 2.08866 5.08588 2.05043C5.87309 2.01488 6.17816 2.00421 7.76858 2.00243V2.00457ZM13.0892 3.42147C12.5238 3.42147 12.0652 3.87961 12.0652 4.44513C12.0652 5.01047 12.5238 5.46914 13.0892 5.46914C13.6545 5.46914 14.1132 5.01047 14.1132 4.44513C14.1132 3.87979 13.6545 3.42147 13.0892 3.42147ZM8.53415 4.61793C6.11403 4.61793 4.15188 6.58008 4.15188 9.0002C4.15188 11.4203 6.11403 13.3816 8.53415 13.3816C10.9543 13.3816 12.9157 11.4203 12.9157 9.0002C12.9157 6.58008 10.9543 4.61793 8.53415 4.61793ZM8.53411 6.15572C10.105 6.15572 11.3786 7.42916 11.3786 9.0002C11.3786 10.5711 10.105 11.8447 8.53411 11.8447C6.96308 11.8447 5.68964 10.5711 5.68964 9.0002C5.68964 7.42916 6.96308 6.15572 8.53411 6.15572Z" fill="#A1F2EF"/>
</svg>
