<svg width="56" height="56" viewBox="0 0 56 56" fill="none" xmlns="http://www.w3.org/2000/svg">
<path d="M42.6666 20V14.6666C42.6666 14.313 42.5262 13.9739 42.2761 13.7238C42.0261 13.4738 41.6869 13.3333 41.3333 13.3333H14.6666C14.313 13.3333 13.9739 13.4738 13.7238 13.7238C13.4738 13.9739 13.3333 14.313 13.3333 14.6666V20H42.6666Z" fill="#1DB5BE"/>
<path d="M13.3333 22.6666V41.3333C13.3333 41.6869 13.4738 42.0261 13.7238 42.2761C13.9739 42.5262 14.313 42.6666 14.6666 42.6666H21.3333V22.6666H13.3333Z" fill="#C4B5FD"/>
<path d="M24 42.6666H41.3333C41.687 42.6666 42.0261 42.5262 42.2761 42.2761C42.5262 42.0261 42.6667 41.6869 42.6667 41.3333V22.6666H24V42.6666Z" fill="#7C3AED"/>
</svg>
